HIERARCHY
ROOT reference
{
  OFFSET -65.3212 -1.93545 -120.338
  CHANNELS 6 Xposition Yposition Zposition Zrotation Xrotation Yrotation
  JOINT Hips
  {
    OFFSET 0 78.7191 0
    CHANNELS 6 Xposition Yposition Zposition Zrotation Xrotation Yrotation
    JOINT Chest
    {
      OFFSET 0 8.7983 -4.7612
      CHANNELS 6 Xposition Yposition Zposition Zrotation Xrotation Yrotation
      JOINT Chest2
      {
        OFFSET 0 8.0291 0.4195
        CHANNELS 6 Xposition Yposition Zposition Zrotation Xrotation Yrotation
        JOINT Chest3
        {
          OFFSET 0 9.9351 -2.2114
          CHANNELS 6 Xposition Yposition Zposition Zrotation Xrotation Yrotation
          JOINT Neck
          {
            OFFSET 0 22.3885 -0.4656
            CHANNELS 6 Xposition Yposition Zposition Zrotation Xrotation Yrotation
            JOINT Head
            {
              OFFSET -0.0001 12.643 3.4389
              CHANNELS 6 Xposition Yposition Zposition Zrotation Xrotation Yrotation
              End Site
              {
                OFFSET 0.0001 17.6655 0.5274
              }
            }
          }
          JOINT LeftCollar
          {
            OFFSET 2.2603 21.606 7.4023
            CHANNELS 6 Xposition Yposition Zposition Zrotation Xrotation Yrotation
            JOINT LeftShoulder
            {
              OFFSET 13.5163 -1.1332 -5.0146
              CHANNELS 6 Xposition Yposition Zposition Zrotation Xrotation Yrotation
              JOINT LeftElbow
              {
                OFFSET -0.0995 -28.05 -0.2431
                CHANNELS 6 Xposition Yposition Zposition Zrotation Xrotation Yrotation
                JOINT LeftWrist
                {
                  OFFSET 0.0679 -23.3996 -0.1402
                  CHANNELS 6 Xposition Yposition Zposition Zrotation Xrotation Yrotation
                  JOINT LeftFinger1
                  {
                    OFFSET 0.7932 -9.069 2.5189
                    CHANNELS 6 Xposition Yposition Zposition Zrotation Xrotation Yrotation
                    JOINT LeftFinger11
                    {
                      OFFSET -0.8272 -3.3923 0.5977
                      CHANNELS 6 Xposition Yposition Zposition Zrotation Xrotation Yrotation
                      JOINT LeftFinger12
                      {
                        OFFSET -0.5649 -2.3158 0.4082
                        CHANNELS 6 Xposition Yposition Zposition Zrotation Xrotation Yrotation
                        End Site
                        {
                          OFFSET -0.4919 -1.6479 0.2673
                        }
                      }
                    }
                  }
                  JOINT LeftFinger2
                  {
                    OFFSET 0.9159 -9.2044 0.2193
                    CHANNELS 6 Xposition Yposition Zposition Zrotation Xrotation Yrotation
                    JOINT LeftFinger21
                    {
                      OFFSET 0.0117 -4.1944 -0.0248
                      CHANNELS 6 Xposition Yposition Zposition Zrotation Xrotation Yrotation
                      JOINT LeftFinger22
                      {
                        OFFSET 0.0071 -2.3249 -0.0142
                        CHANNELS 6 Xposition Yposition Zposition Zrotation Xrotation Yrotation
                        End Site
                        {
                          OFFSET -0.1475 -2.0882 0.0028
                        }
                      }
                    }
                  }
                  JOINT LeftFinger3
                  {
                    OFFSET 0.6113 -8.7231 -2.0637
                    CHANNELS 6 Xposition Yposition Zposition Zrotation Xrotation Yrotation
                    JOINT LeftFinger31
                    {
                      OFFSET -0.1927 -3.8059 -0.2383
                      CHANNELS 6 Xposition Yposition Zposition Zrotation Xrotation Yrotation
                      JOINT LeftFinger32
                      {
                        OFFSET -0.1091 -2.1688 -0.1362
                        CHANNELS 6 Xposition Yposition Zposition Zrotation Xrotation Yrotation
                        End Site
                        {
                          OFFSET -0.2358 -1.9176 -0.0906
                        }
                      }
                    }
                  }
                  JOINT LeftFinger4
                  {
                    OFFSET -0.6151 -8.0947 -3.5641
                    CHANNELS 6 Xposition Yposition Zposition Zrotation Xrotation Yrotation
                    JOINT LeftFinger41
                    {
                      OFFSET -0.4882 -2.341 -0.6462
                      CHANNELS 6 Xposition Yposition Zposition Zrotation Xrotation Yrotation
                      JOINT LeftFinger42
                      {
                        OFFSET -0.3575 -1.7167 -0.4742
                        CHANNELS 6 Xposition Yposition Zposition Zrotation Xrotation Yrotation
                        End Site
                        {
                          OFFSET -0.4187 -1.5237 -0.3496
                        }
                      }
                    }
                  }
                  JOINT LeftFinger0
                  {
                    OFFSET -1.42 -1.8761 1.4223
                    CHANNELS 6 Xposition Yposition Zposition Zrotation Xrotation Yrotation
                    JOINT LeftFinger01
                    {
                      OFFSET -1.1471 -3.4929 2.6334
                      CHANNELS 6 Xposition Yposition Zposition Zrotation Xrotation Yrotation
                      JOINT LeftFinger02
                      {
                        OFFSET -0.823 -2.3 1.6571
                        CHANNELS 6 Xposition Yposition Zposition Zrotation Xrotation Yrotation
                        End Site
                        {
                          OFFSET -0.5822 -1.6914 1.1582
                        }
                      }
                    }
                  }
                }
              }
            }
          }
          JOINT RightCollar
          {
            OFFSET -2.2603 21.606 7.4023
            CHANNELS 6 Xposition Yposition Zposition Zrotation Xrotation Yrotation
            JOINT RightShoulder
            {
              OFFSET -13.5187 -1.1334 -5.0155
              CHANNELS 6 Xposition Yposition Zposition Zrotation Xrotation Yrotation
              JOINT RightElbow
              {
                OFFSET 0.0994 -28.0499 -0.2431
                CHANNELS 6 Xposition Yposition Zposition Zrotation Xrotation Yrotation
                JOINT RightWrist
                {
                  OFFSET -0.0679 -23.3996 -0.1402
                  CHANNELS 6 Xposition Yposition Zposition Zrotation Xrotation Yrotation
                  JOINT RightFinger1
                  {
                    OFFSET -0.7932 -9.0691 2.5189
                    CHANNELS 6 Xposition Yposition Zposition Zrotation Xrotation Yrotation
                    JOINT RightFinger11
                    {
                      OFFSET 0.8272 -3.3923 0.5977
                      CHANNELS 6 Xposition Yposition Zposition Zrotation Xrotation Yrotation
                      JOINT RightFinger12
                      {
                        OFFSET 0.565 -2.3158 0.4082
                        CHANNELS 6 Xposition Yposition Zposition Zrotation Xrotation Yrotation
                        End Site
                        {
                          OFFSET 0.4919 -1.6479 0.2673
                        }
                      }
                    }
                  }
                  JOINT RightFinger2
                  {
                    OFFSET -0.916 -9.2044 0.2193
                    CHANNELS 6 Xposition Yposition Zposition Zrotation Xrotation Yrotation
                    JOINT RightFinger21
                    {
                      OFFSET -0.0117 -4.1944 -0.0248
                      CHANNELS 6 Xposition Yposition Zposition Zrotation Xrotation Yrotation
                      JOINT RightFinger22
                      {
                        OFFSET -0.0071 -2.3249 -0.0142
                        CHANNELS 6 Xposition Yposition Zposition Zrotation Xrotation Yrotation
                        End Site
                        {
                          OFFSET 0.1475 -2.0882 0.0028
                        }
                      }
                    }
                  }
                  JOINT RightFinger3
                  {
                    OFFSET -0.6113 -8.7231 -2.0637
                    CHANNELS 6 Xposition Yposition Zposition Zrotation Xrotation Yrotation
                    JOINT RightFinger31
                    {
                      OFFSET 0.1927 -3.8059 -0.2383
                      CHANNELS 6 Xposition Yposition Zposition Zrotation Xrotation Yrotation
                      JOINT RightFinger32
                      {
                        OFFSET 0.1091 -2.1688 -0.1362
                        CHANNELS 6 Xposition Yposition Zposition Zrotation Xrotation Yrotation
                        End Site
                        {
                          OFFSET 0.2358 -1.9176 -0.0906
                        }
                      }
                    }
                  }
                  JOINT RightFinger4
                  {
                    OFFSET 0.6151 -8.0947 -3.564
                    CHANNELS 6 Xposition Yposition Zposition Zrotation Xrotation Yrotation
                    JOINT RightFinger41
                    {
                      OFFSET 0.4882 -2.341 -0.6462
                      CHANNELS 6 Xposition Yposition Zposition Zrotation Xrotation Yrotation
                      JOINT RightFinger42
                      {
                        OFFSET 0.3574 -1.7166 -0.4742
                        CHANNELS 6 Xposition Yposition Zposition Zrotation Xrotation Yrotation
                        End Site
                        {
                          OFFSET 0.4187 -1.5237 -0.3496
                        }
                      }
                    }
                  }
                  JOINT RightFinger0
                  {
                    OFFSET 1.4199 -1.8761 1.4221
                    CHANNELS 6 Xposition Yposition Zposition Zrotation Xrotation Yrotation
                    JOINT RightFinger01
                    {
                      OFFSET 1.1472 -3.4929 2.6336
                      CHANNELS 6 Xposition Yposition Zposition Zrotation Xrotation Yrotation
                      JOINT RightFinger02
                      {
                        OFFSET 0.8229 -2.3 1.6571
                        CHANNELS 6 Xposition Yposition Zposition Zrotation Xrotation Yrotation
                        End Site
                        {
                          OFFSET 0.5822 -1.6914 1.1582
                        }
                      }
                    }
                  }
                }
              }
            }
          }
        }
      }
    }
    JOINT RightHip
    {
      OFFSET -9.412 3.9771 -0.7758
      CHANNELS 6 Xposition Yposition Zposition Zrotation Xrotation Yrotation
      JOINT RightKnee
      {
        OFFSET -0.7531 -40.938 0
        CHANNELS 6 Xposition Yposition Zposition Zrotation Xrotation Yrotation
        JOINT RightAnkle
        {
          OFFSET 0 -40.1986 0
          CHANNELS 6 Xposition Yposition Zposition Zrotation Xrotation Yrotation
          JOINT RightToe
          {
            OFFSET 0 -4.4182 9.239
            CHANNELS 6 Xposition Yposition Zposition Zrotation Xrotation Yrotation
            End Site
            {
              OFFSET 0 0 6.1981
            }
          }
        }
      }
    }
    JOINT LeftHip
    {
      OFFSET 9.4119 3.9773 -0.7758
      CHANNELS 6 Xposition Yposition Zposition Zrotation Xrotation Yrotation
      JOINT LeftKnee
      {
        OFFSET 0.7532 -40.9383 0
        CHANNELS 6 Xposition Yposition Zposition Zrotation Xrotation Yrotation
        JOINT LeftAnkle
        {
          OFFSET 0 -40.1986 0
          CHANNELS 6 Xposition Yposition Zposition Zrotation Xrotation Yrotation
          JOINT LeftToe
          {
            OFFSET 0 -4.4182 9.239
            CHANNELS 6 Xposition Yposition Zposition Zrotation Xrotation Yrotation
            End Site
            {
              OFFSET 0 0 6.1981
            }
          }
        }
      }
    }
  }
}
MOTION
Frames:	4
Frame Time:	0.0333333
0.40135 -30.3423 1.37932 0 0 -0 4.82947e-015 78.7191 0 -3.96693 3.67987 -2.66947 4.44089e-016 8.7983 -4.7612 1.58806 6.41608 0.623579 0 8.0291 0.4195 3.1351 12.8468 1.07692 4.44089e-016 9.9351 -2.2114 3.13511 12.8468 1.07692 -8.88179e-016 22.3885 -0.4656 2.21019 11.4304 1.88518 -0.0001 12.643 3.4389 4.95401 15.37 4.81474 2.2603 21.606 7.4023 9.21044 -2.20483 -6.97889 13.5163 -1.1332 -5.0146 32.6114 3.42033 23.2979 -0.0995 -28.05 -0.2431 -157.661 -61.7649 -115.241 0.0679 -23.3996 -0.1402 -19.8939 -19.2444 -6.73979 0.7932 -9.069 2.5189 0.221892 13.0841 -16.4931 -0.8272 -3.3923 0.5977 -0.126871 -1.72378 -0.669445 -0.5649 -2.3158 0.4082 -1.64873 1.02684 -0.0737236 0.9159 -9.2044 0.2193 7.36828 1.10882 -8.86493 0.0117 -4.1944 -0.0248 -14.5772 9.1924 -0.264004 0.0071 -2.3249 -0.0142 -15.3411 9.66968 -0.215438 0.6113 -8.7231 -2.0637 5.48245 5.03659 0.759966 -0.1927 -3.8059 -0.2383 -11.6759 8.14352 -0.721433 -0.1091 -2.1688 -0.1362 -13.3217 9.29244 -0.691423 -0.6151 -8.0947 -3.5641 9.27379 18.3539 1.86593 -0.4882 -2.341 -0.6462 -11.0159 7.61116 -1.1094 -0.3575 -1.7167 -0.4742 -16.0438 11.1088 -1.12557 -1.42 -1.8761 1.4223 -7.55191 6.16807 1.51433 -1.1471 -3.4929 2.6334 4.61879 5.96208 -1.49408 -0.823 -2.3 1.6571 10.0017 12.3871 -3.74163 -2.2603 21.606 7.4023 -16.4617 -0.0377015 11.1132 -13.5187 -1.1334 -5.0155 -29.0189 41.0493 -40.9673 0.0994 -28.0499 -0.2431 151.374 -46.9328 106.812 -0.0679 -23.3996 -0.1402 -18.3357 -38.9411 60.1691 -0.7932 -9.0691 2.5189 29.9033 15.0791 7.5488 0.8272 -3.3923 0.5977 17.7567 5.90631 -1.2103 0.565 -2.3158 0.4082 23.8054 7.77456 -2.02794 -0.916 -9.2044 0.2193 15.4016 5.5705 7.06152 -0.0117 -4.1944 -0.0248 30.0687 9.86987 -1.9282 -0.0071 -2.3249 -0.0142 5.83196 1.98775 0.0376324 -0.6113 -8.7231 -2.0637 15.2703 13.4082 -2.1569 0.1927 -3.8059 -0.2383 26.7646 10.2255 -0.905531 0.1091 -2.1688 -0.1362 4.02143 1.55712 0.172378 0.6151 -8.0947 -3.564 15.9397 26.4315 -7.203 0.4882 -2.341 -0.6462 25.9974 9.82879 -0.0286017 0.3574 -1.7166 -0.4742 7.12868 2.69186 0.439497 1.4199 -1.8761 1.4221 9.11159 18.3036 -19.7854 1.1472 -3.4929 2.6336 -4.34911 9.26976 3.30176 0.8229 -2.3 1.6571 -8.30249 16.4189 6.52105 -9.412 3.9771 -0.7758 2.50141 -73.0108 2.6086 -0.7531 -40.938 0 118.713 72.8175 -115.334 4.44089e-016 -40.1986 0 -7.50861 -17.6675 -12.8023 -1.33227e-015 -4.4182 9.239 2.61905 -0.496845 -0.180795 9.4119 3.9773 -0.7758 -36.7456 -77.3881 -48.6429 0.7532 -40.9383 0 -163.622 74.8831 170.375 0 -40.1986 0 -1.872 -6.28304 -2.1313 0 -4.4182 9.239 -2.1447 -5.85634 0.0285502 
0.349896 -30.2969 1.47096 0 0 -0 4.82947e-015 78.7191 0 -3.99812 3.25829 -2.63912 -4.44089e-016 8.7983 -4.7612 1.59093 6.36208 0.600726 2.22045e-016 8.0291 0.4195 3.1436 12.7382 1.03186 -4.44089e-016 9.9351 -2.2114 3.14361 12.7382 1.03186 0 22.3885 -0.4656 1.98254 11.2627 1.56952 -0.0001 12.643 3.4389 4.8121 15.1722 4.46184 2.2603 21.606 7.4023 9.26744 -2.15758 -6.87736 13.5163 -1.1332 -5.0146 32.507 6.74639 19.7896 -0.0995 -28.05 -0.2431 -165.746 -62.8378 -123.786 0.0679 -23.3996 -0.1402 -18.4645 -16.9855 -12.6034 0.7932 -9.069 2.5189 1.13253 11.8027 -16.5844 -0.8272 -3.3923 0.5977 -0.181412 -2.36359 -0.95644 -0.5649 -2.3158 0.4082 -0.290224 0.180464 -0.0151324 0.9159 -9.2044 0.2193 9.2607 -0.52606 -8.67093 0.0117 -4.1944 -0.0248 -12.4346 7.85216 -0.374329 0.0071 -2.3249 -0.0142 -13.2259 8.34882 -0.340465 0.6113 -8.7231 -2.0637 7.56662 3.65709 0.872177 -0.1927 -3.8059 -0.2383 -9.6132 6.70117 -0.716931 -0.1091 -2.1688 -0.1362 -11.2842 7.87116 -0.7265 -0.6151 -8.0947 -3.5641 11.4863 17.0337 1.5294 -0.4882 -2.341 -0.6462 -8.96287 6.17829 -1.01352 -0.3575 -1.7167 -0.4742 -14.0022 9.69284 -1.1566 -1.42 -1.8761 1.4223 -7.5519 6.16808 1.51436 -1.1471 -3.4929 2.6334 4.61885 5.96199 -1.49422 -0.823 -2.3 1.6571 10.0017 12.3871 -3.74162 -2.2603 21.606 7.4023 -16.4616 -0.0376845 11.1132 -13.5187 -1.1334 -5.0155 -29.3599 39.8596 -40.5972 0.0994 -28.0499 -0.2431 150.98 -47.5012 106.614 -0.0679 -23.3996 -0.1402 -18.0741 -37.8485 60.6808 -0.7932 -9.0691 2.5189 29.9032 15.0792 7.54882 0.8272 -3.3923 0.5977 17.7566 5.90632 -1.21031 0.565 -2.3158 0.4082 23.8054 7.77457 -2.02793 -0.916 -9.2044 0.2193 15.4016 5.5705 7.06154 -0.0117 -4.1944 -0.0248 30.0687 9.86985 -1.92835 -0.0071 -2.3249 -0.0142 5.83196 1.98774 0.0376491 -0.6113 -8.7231 -2.0637 15.2703 13.4082 -2.15686 0.1927 -3.8059 -0.2383 26.7646 10.2255 -0.905733 0.1091 -2.1688 -0.1362 4.02143 1.55711 0.172365 0.6151 -8.0947 -3.564 15.9397 26.4315 -7.20294 0.4882 -2.341 -0.6462 25.9974 9.8288 -0.0285701 0.3574 -1.7166 -0.4742 7.12872 2.69186 0.439463 1.4199 -1.8761 1.4221 9.11156 18.3036 -19.7854 1.1472 -3.4929 2.6336 -4.34911 9.26975 3.30179 0.8229 -2.3 1.6571 -8.3025 16.4189 6.52106 -9.412 3.9771 -0.7758 1.20302 -73.2403 1.31234 -0.7531 -40.938 7.10543e-015 119.085 72.8002 -115.692 2.22045e-015 -40.1986 0 -7.3421 -17.161 -12.7709 8.88179e-016 -4.4182 9.239 2.61902 -0.496839 -0.180739 9.4119 3.9773 -0.7758 -35.7665 -76.878 -47.6371 0.7532 -40.9383 0 -163.546 74.9309 170.275 -1.77636e-015 -40.1986 0 -1.81477 -6.33702 -2.15345 1.77636e-015 -4.4182 9.239 -2.1447 -5.85636 0.0285662 
0.248545 -30.1736 1.6755 0 0 -0 4.82947e-015 78.7191 0 -4.03514 2.76787 -2.61052 -8.88178e-016 8.7983 -4.7612 1.59373 6.31395 0.578738 -2.22045e-016 8.0291 0.4195 3.15181 12.6414 0.988417 0 9.9351 -2.2114 3.15183 12.6415 0.98842 -8.88178e-016 22.3885 -0.4656 1.61235 10.9672 1.15769 -0.0001 12.643 3.4389 4.53894 14.8305 4.00242 2.2603 21.606 7.4023 9.32807 -2.10739 -6.76934 13.5163 -1.1332 -5.0146 32.7049 10.043 11.9752 -0.0995 -28.05 -0.2431 176.669 -63.5551 -142.553 0.0679 -23.3996 -0.1402 -15.3063 -15.7365 -19.5857 0.7932 -9.069 2.5189 2.08424 10.4814 -16.6933 -0.8272 -3.3923 0.5977 -0.244315 -3.05086 -1.28943 -0.5649 -2.3158 0.4082 1.15472 -0.717296 0.0691351 0.9159 -9.2044 0.2193 11.1216 -2.1119 -8.43987 0.0117 -4.1944 -0.0248 -10.3563 6.5421 -0.430875 0.0071 -2.3249 -0.0142 -11.1203 7.02432 -0.415884 0.6113 -8.7231 -2.0637 9.60805 2.32229 1.03192 -0.1927 -3.8059 -0.2383 -7.61034 5.29705 -0.660344 -0.1091 -2.1688 -0.1362 -9.25394 6.44957 -0.710568 -0.6151 -8.0947 -3.5641 13.6391 15.7593 1.25603 -0.4882 -2.341 -0.6462 -6.96404 4.78558 -0.870816 -0.3575 -1.7167 -0.4742 -11.9693 8.27669 -1.1365 -1.42 -1.8761 1.4223 -7.55191 6.16808 1.5144 -1.1471 -3.4929 2.6334 4.61883 5.96199 -1.49419 -0.823 -2.3 1.6571 10.0017 12.3871 -3.74155 -2.2603 21.606 7.4023 -16.4616 -0.0377436 11.1131 -13.5187 -1.1334 -5.0155 -29.5846 38.4749 -40.2217 0.0994 -28.0499 -0.2431 150.646 -48.2236 106.543 -0.0679 -23.3996 -0.1402 -17.6715 -36.6064 61.3171 -0.7932 -9.0691 2.5189 29.9032 15.0791 7.54886 0.8272 -3.3923 0.5977 17.7566 5.90629 -1.21027 0.565 -2.3158 0.4082 23.8054 7.77456 -2.02791 -0.916 -9.2044 0.2193 15.4015 5.57048 7.06155 -0.0117 -4.1944 -0.0248 30.0687 9.86983 -1.92835 -0.0071 -2.3249 -0.0142 5.83196 1.98776 0.0376593 -0.6113 -8.7231 -2.0637 15.2703 13.4082 -2.15683 0.1927 -3.8059 -0.2383 26.7646 10.2255 -0.905725 0.1091 -2.1688 -0.1362 4.02139 1.5571 0.17238 0.6151 -8.0947 -3.564 15.9396 26.4315 -7.20286 0.4882 -2.341 -0.6462 25.9973 9.82878 -0.0285798 0.3574 -1.7166 -0.4742 7.12868 2.69186 0.439488 1.4199 -1.8761 1.4221 9.11162 18.3035 -19.7855 1.1472 -3.4929 2.6336 -4.34914 9.26967 3.30182 0.8229 -2.3 1.6571 -8.30248 16.4189 6.52105 -9.412 3.9771 -0.7758 -2.50981 -74.5553 -2.45625 -0.7531 -40.938 7.10543e-015 120.001 72.7463 -116.512 -4.44089e-016 -40.1986 7.10543e-015 -7.03739 -15.8735 -12.6422 4.44089e-016 -4.4182 9.239 2.61897 -0.496838 -0.180657 9.4119 3.9773 -0.7758 -34.1704 -76.1731 -46.0585 0.7532 -40.9383 -7.10543e-015 -163.422 75.0134 170.103 0 -40.1986 0 -1.78419 -6.5378 -2.19226 1.77636e-015 -4.4182 9.239 -2.14472 -5.85636 0.028603 
0.13043 -29.9827 1.96644 0 0 -0 4.82947e-015 78.7191 0 -4.0775 2.21838 -2.58426 4.44089e-016 8.7983 -4.7612 1.59636 6.27036 0.557583 0 8.0291 0.4195 3.15956 12.5537 0.946586 0 9.9351 -2.2114 3.15957 12.5537 0.946587 -8.88179e-016 22.3885 -0.4656 1.11434 10.5568 0.65869 -0.0001 12.643 3.4389 4.1436 14.3633 3.44805 2.2603 21.606 7.4023 9.3886 -2.05696 -6.6614 13.5163 -1.1332 -5.0146 32.7581 13.1635 6.55263 -0.0995 -28.05 -0.2431 164.246 -62.4543 -155.793 0.0679 -23.3996 -0.1402 -11.9725 -15.821 -26.5725 0.7932 -9.069 2.5189 3.08115 9.12129 -16.8052 -0.8272 -3.3923 0.5977 -0.312096 -3.73258 -1.64651 -0.5649 -2.3158 0.4082 2.61937 -1.62376 0.177493 0.9159 -9.2044 0.2193 12.8996 -3.60422 -8.18207 0.0117 -4.1944 -0.0248 -8.39064 5.29841 -0.440244 0.0071 -2.3249 -0.0142 -9.15268 5.78083 -0.441959 0.6113 -8.7231 -2.0637 11.5505 1.06921 1.22888 -0.1927 -3.8059 -0.2383 -5.71302 3.96787 -0.561353 -0.1091 -2.1688 -0.1362 -7.35478 5.11804 -0.649756 -0.6151 -8.0947 -3.5641 15.6741 14.5645 1.04634 -0.4882 -2.341 -0.6462 -5.06815 3.46995 -0.690793 -0.3575 -1.7167 -0.4742 -10.069 6.95046 -1.07177 -1.42 -1.8761 1.4223 -7.55194 6.16809 1.51443 -1.1471 -3.4929 2.6334 4.61882 5.96197 -1.4942 -0.823 -2.3 1.6571 10.0017 12.3872 -3.74144 -2.2603 21.606 7.4023 -16.4616 -0.037624 11.1132 -13.5187 -1.1334 -5.0155 -29.7204 36.9261 -39.8353 0.0994 -28.0499 -0.2431 150.336 -49.093 106.548 -0.0679 -23.3996 -0.1402 -17.1577 -35.2567 62.0461 -0.7932 -9.0691 2.5189 29.9032 15.0792 7.54891 0.8272 -3.3923 0.5977 17.7566 5.90629 -1.21028 0.565 -2.3158 0.4082 23.8054 7.77458 -2.02785 -0.916 -9.2044 0.2193 15.4015 5.57049 7.06159 -0.0117 -4.1944 -0.0248 30.0687 9.86983 -1.92836 -0.0071 -2.3249 -0.0142 5.83194 1.98774 0.0376619 -0.6113 -8.7231 -2.0637 15.2703 13.4082 -2.15674 0.1927 -3.8059 -0.2383 26.7646 10.2255 -0.905732 0.1091 -2.1688 -0.1362 4.0214 1.5571 0.17239 0.6151 -8.0947 -3.564 15.9397 26.4315 -7.20305 0.4882 -2.341 -0.6462 25.9973 9.82877 -0.0285465 0.3574 -1.7166 -0.4742 7.12869 2.69185 0.439499 1.4199 -1.8761 1.4221 9.11167 18.3035 -19.7856 1.1472 -3.4929 2.6336 -4.34909 9.26971 3.30173 0.8229 -2.3 1.6571 -8.30249 16.4189 6.52107 -9.412 3.9771 -0.7758 -8.42588 -76.5298 -8.5712 -0.7531 -40.938 -7.10543e-015 120.475 72.7969 -116.808 -4.44089e-016 -40.1986 0 -6.76222 -14.1398 -12.4815 -8.88179e-016 -4.4182 9.239 2.61909 -0.496851 -0.180842 9.4119 3.9773 -0.7758 -32.2789 -75.2846 -44.1974 0.7532 -40.9383 0 -163.242 75.1413 169.875 -3.55271e-015 -40.1986 0 -1.76116 -6.84212 -2.23289 0 -4.4182 9.239 -2.14475 -5.85637 0.0286662 
